<mxfile host="Electron" modified="2024-01-19T13:29:14.440Z" agent="Mozilla/5.0 (Windows NT 10.0; Win64; x64) AppleWebKit/537.36 (KHTML, like Gecko) draw.io/22.1.21 Chrome/120.0.6099.109 Electron/28.1.0 Safari/537.36" etag="_nGU2WX3Iofk8r5eEdaf" version="22.1.21" type="device">
  <diagram name="Страница — 1" id="K_zEX6VsGvgMb8bgnzBZ">
    <mxGraphModel dx="560" dy="328" grid="1" gridSize="10" guides="1" tooltips="1" connect="1" arrows="1" fold="1" page="1" pageScale="1" pageWidth="1600" pageHeight="900" math="0" shadow="0">
      <root>
        <mxCell id="0" />
        <mxCell id="1" parent="0" />
        <mxCell id="D2QjYySZyVxiEh5gyAXJ-1" value="" style="ellipse;whiteSpace=wrap;html=1;" parent="1" vertex="1">
          <mxGeometry x="480" y="400" width="40" height="40" as="geometry" />
        </mxCell>
        <mxCell id="D2QjYySZyVxiEh5gyAXJ-2" value="" style="ellipse;whiteSpace=wrap;html=1;fillColor=#000000;strokeColor=none;" parent="1" vertex="1">
          <mxGeometry x="499" y="408" width="3" height="3" as="geometry" />
        </mxCell>
        <mxCell id="D2QjYySZyVxiEh5gyAXJ-3" value="&lt;font style=&quot;font-size: 10px;&quot;&gt;монитор&lt;/font&gt;" style="text;html=1;strokeColor=none;fillColor=default;align=left;verticalAlign=middle;whiteSpace=wrap;rounded=0;" parent="1" vertex="1">
          <mxGeometry x="504" y="402.5" width="58" height="11.5" as="geometry" />
        </mxCell>
        <mxCell id="D2QjYySZyVxiEh5gyAXJ-4" value="" style="ellipse;whiteSpace=wrap;html=1;fillColor=#000000;strokeColor=none;" parent="1" vertex="1">
          <mxGeometry x="499" y="430" width="3" height="3" as="geometry" />
        </mxCell>
        <mxCell id="D2QjYySZyVxiEh5gyAXJ-5" value="&lt;font style=&quot;font-size: 10px;&quot;&gt;динамики&lt;/font&gt;" style="text;html=1;strokeColor=none;fillColor=default;align=left;verticalAlign=middle;whiteSpace=wrap;rounded=0;" parent="1" vertex="1">
          <mxGeometry x="504" y="424.5" width="68" height="11.5" as="geometry" />
        </mxCell>
        <mxCell id="D2QjYySZyVxiEh5gyAXJ-6" value="Объект А" style="text;html=1;strokeColor=none;fillColor=default;align=center;verticalAlign=middle;whiteSpace=wrap;rounded=0;" parent="1" vertex="1">
          <mxGeometry x="466" y="447" width="68" height="11.5" as="geometry" />
        </mxCell>
        <mxCell id="D2QjYySZyVxiEh5gyAXJ-7" value="" style="ellipse;whiteSpace=wrap;html=1;fillColor=#000000;strokeColor=none;" parent="1" vertex="1">
          <mxGeometry x="499" y="318.5" width="3" height="3" as="geometry" />
        </mxCell>
        <mxCell id="D2QjYySZyVxiEh5gyAXJ-8" value="&lt;p style=&quot;line-height: 70%;&quot;&gt;&lt;font style=&quot;font-size: 10px;&quot;&gt;скрытая камера&lt;/font&gt;&lt;/p&gt;" style="text;html=1;strokeColor=none;fillColor=default;align=center;verticalAlign=middle;whiteSpace=wrap;rounded=0;" parent="1" vertex="1">
          <mxGeometry x="472.5" y="300" width="56" height="11.5" as="geometry" />
        </mxCell>
        <mxCell id="D2QjYySZyVxiEh5gyAXJ-10" value="" style="endArrow=blockThin;html=1;rounded=0;endFill=0;strokeWidth=0.5;" parent="1" edge="1">
          <mxGeometry width="50" height="50" relative="1" as="geometry">
            <mxPoint x="500.5" y="406" as="sourcePoint" />
            <mxPoint x="500.5" y="324" as="targetPoint" />
          </mxGeometry>
        </mxCell>
        <mxCell id="kqzkL6HVJ6pBjtvg17pY-1" value="&lt;font style=&quot;font-size: 8px;&quot;&gt;оптический&lt;/font&gt;" style="edgeLabel;html=1;align=center;verticalAlign=middle;resizable=0;points=[];" vertex="1" connectable="0" parent="D2QjYySZyVxiEh5gyAXJ-10">
          <mxGeometry x="0.1423" relative="1" as="geometry">
            <mxPoint y="-3" as="offset" />
          </mxGeometry>
        </mxCell>
        <mxCell id="kqzkL6HVJ6pBjtvg17pY-2" value="" style="ellipse;whiteSpace=wrap;html=1;fillColor=#000000;strokeColor=none;" vertex="1" parent="1">
          <mxGeometry x="380" y="410" width="3" height="3" as="geometry" />
        </mxCell>
        <mxCell id="kqzkL6HVJ6pBjtvg17pY-3" value="&lt;p style=&quot;line-height: 70%;&quot;&gt;&lt;font style=&quot;font-size: 10px;&quot;&gt;окно&lt;/font&gt;&lt;/p&gt;" style="text;html=1;strokeColor=none;fillColor=default;align=center;verticalAlign=middle;whiteSpace=wrap;rounded=0;" vertex="1" parent="1">
          <mxGeometry x="363" y="413.5" width="37" height="11.5" as="geometry" />
        </mxCell>
        <mxCell id="kqzkL6HVJ6pBjtvg17pY-4" value="" style="endArrow=blockThin;html=1;rounded=0;endFill=0;strokeWidth=0.5;" edge="1" parent="1">
          <mxGeometry width="50" height="50" relative="1" as="geometry">
            <mxPoint x="496" y="410" as="sourcePoint" />
            <mxPoint x="385" y="411" as="targetPoint" />
          </mxGeometry>
        </mxCell>
        <mxCell id="kqzkL6HVJ6pBjtvg17pY-5" value="&lt;font style=&quot;font-size: 8px;&quot;&gt;оптический&lt;/font&gt;" style="edgeLabel;html=1;align=center;verticalAlign=middle;resizable=0;points=[];" vertex="1" connectable="0" parent="kqzkL6HVJ6pBjtvg17pY-4">
          <mxGeometry x="0.1423" relative="1" as="geometry">
            <mxPoint x="9" y="-3" as="offset" />
          </mxGeometry>
        </mxCell>
        <mxCell id="kqzkL6HVJ6pBjtvg17pY-8" value="" style="ellipse;whiteSpace=wrap;html=1;fillColor=#000000;strokeColor=none;" vertex="1" parent="1">
          <mxGeometry x="565" y="358.5" width="3" height="3" as="geometry" />
        </mxCell>
        <mxCell id="kqzkL6HVJ6pBjtvg17pY-9" value="&lt;p style=&quot;line-height: 70%;&quot;&gt;&lt;font style=&quot;font-size: 10px;&quot;&gt;нарушитель (за&amp;nbsp;дверью)&lt;/font&gt;&lt;/p&gt;" style="text;html=1;strokeColor=none;fillColor=default;align=center;verticalAlign=middle;whiteSpace=wrap;rounded=0;" vertex="1" parent="1">
          <mxGeometry x="528.5" y="340" width="76" height="11.5" as="geometry" />
        </mxCell>
        <mxCell id="kqzkL6HVJ6pBjtvg17pY-10" value="" style="endArrow=blockThin;html=1;rounded=0;endFill=0;strokeWidth=0.5;" edge="1" parent="1">
          <mxGeometry width="50" height="50" relative="1" as="geometry">
            <mxPoint x="505.71000000000004" y="407.5" as="sourcePoint" />
            <mxPoint x="563" y="362" as="targetPoint" />
          </mxGeometry>
        </mxCell>
        <mxCell id="kqzkL6HVJ6pBjtvg17pY-11" value="&lt;font style=&quot;font-size: 8px;&quot;&gt;оптический&lt;/font&gt;" style="edgeLabel;html=1;align=center;verticalAlign=middle;resizable=0;points=[];" vertex="1" connectable="0" parent="kqzkL6HVJ6pBjtvg17pY-10">
          <mxGeometry x="0.1423" relative="1" as="geometry">
            <mxPoint x="-2" y="1" as="offset" />
          </mxGeometry>
        </mxCell>
        <mxCell id="kqzkL6HVJ6pBjtvg17pY-12" value="" style="ellipse;whiteSpace=wrap;html=1;fillColor=#000000;strokeColor=none;" vertex="1" parent="1">
          <mxGeometry x="406.5" y="360.5" width="3" height="3" as="geometry" />
        </mxCell>
        <mxCell id="kqzkL6HVJ6pBjtvg17pY-13" value="&lt;p style=&quot;line-height: 70%;&quot;&gt;&lt;font style=&quot;font-size: 10px;&quot;&gt;антенна нарушителя&lt;/font&gt;&lt;/p&gt;" style="text;html=1;strokeColor=none;fillColor=default;align=center;verticalAlign=middle;whiteSpace=wrap;rounded=0;" vertex="1" parent="1">
          <mxGeometry x="380" y="342" width="56" height="10" as="geometry" />
        </mxCell>
        <mxCell id="kqzkL6HVJ6pBjtvg17pY-14" value="" style="endArrow=blockThin;html=1;rounded=0;endFill=0;strokeWidth=0.5;" edge="1" parent="1">
          <mxGeometry width="50" height="50" relative="1" as="geometry">
            <mxPoint x="497" y="408" as="sourcePoint" />
            <mxPoint x="412" y="364" as="targetPoint" />
          </mxGeometry>
        </mxCell>
        <mxCell id="kqzkL6HVJ6pBjtvg17pY-15" value="&lt;font style=&quot;font-size: 8px;&quot;&gt;электромагнитный&lt;/font&gt;" style="edgeLabel;html=1;align=center;verticalAlign=middle;resizable=0;points=[];" vertex="1" connectable="0" parent="kqzkL6HVJ6pBjtvg17pY-14">
          <mxGeometry x="0.1423" relative="1" as="geometry">
            <mxPoint x="4" as="offset" />
          </mxGeometry>
        </mxCell>
        <mxCell id="kqzkL6HVJ6pBjtvg17pY-17" value="" style="ellipse;whiteSpace=wrap;html=1;fillColor=#000000;strokeColor=none;" vertex="1" parent="1">
          <mxGeometry x="397.5" y="470" width="3" height="3" as="geometry" />
        </mxCell>
        <mxCell id="kqzkL6HVJ6pBjtvg17pY-18" value="&lt;p style=&quot;line-height: 70%;&quot;&gt;&lt;font style=&quot;font-size: 10px;&quot;&gt;нарушитель (за дверью)&lt;/font&gt;&lt;/p&gt;" style="text;html=1;strokeColor=none;fillColor=default;align=center;verticalAlign=middle;whiteSpace=wrap;rounded=0;" vertex="1" parent="1">
          <mxGeometry x="371" y="479" width="56.5" height="10" as="geometry" />
        </mxCell>
        <mxCell id="kqzkL6HVJ6pBjtvg17pY-19" value="" style="endArrow=blockThin;html=1;rounded=0;endFill=0;strokeWidth=0.5;" edge="1" parent="1">
          <mxGeometry width="50" height="50" relative="1" as="geometry">
            <mxPoint x="496" y="433" as="sourcePoint" />
            <mxPoint x="403" y="469" as="targetPoint" />
          </mxGeometry>
        </mxCell>
        <mxCell id="kqzkL6HVJ6pBjtvg17pY-20" value="&lt;font style=&quot;font-size: 8px;&quot;&gt;акустический&lt;/font&gt;" style="edgeLabel;html=1;align=center;verticalAlign=middle;resizable=0;points=[];" vertex="1" connectable="0" parent="kqzkL6HVJ6pBjtvg17pY-19">
          <mxGeometry x="0.1423" relative="1" as="geometry">
            <mxPoint x="-6" as="offset" />
          </mxGeometry>
        </mxCell>
        <mxCell id="kqzkL6HVJ6pBjtvg17pY-24" value="" style="endArrow=blockThin;html=1;rounded=0;endFill=0;strokeWidth=0.5;" edge="1" parent="1">
          <mxGeometry width="50" height="50" relative="1" as="geometry">
            <mxPoint x="495" y="431" as="sourcePoint" />
            <mxPoint x="385" y="429" as="targetPoint" />
          </mxGeometry>
        </mxCell>
        <mxCell id="kqzkL6HVJ6pBjtvg17pY-25" value="&lt;font style=&quot;font-size: 8px;&quot;&gt;акустический&lt;/font&gt;" style="edgeLabel;html=1;align=center;verticalAlign=middle;resizable=0;points=[];" vertex="1" connectable="0" parent="kqzkL6HVJ6pBjtvg17pY-24">
          <mxGeometry x="0.1423" relative="1" as="geometry">
            <mxPoint x="12" y="-1" as="offset" />
          </mxGeometry>
        </mxCell>
        <mxCell id="kqzkL6HVJ6pBjtvg17pY-26" value="" style="ellipse;whiteSpace=wrap;html=1;fillColor=#000000;strokeColor=none;" vertex="1" parent="1">
          <mxGeometry x="380" y="428" width="3" height="3" as="geometry" />
        </mxCell>
        <mxCell id="kqzkL6HVJ6pBjtvg17pY-27" value="" style="ellipse;whiteSpace=wrap;html=1;fillColor=#000000;strokeColor=none;" vertex="1" parent="1">
          <mxGeometry x="292.5" y="418.75" width="3" height="3" as="geometry" />
        </mxCell>
        <mxCell id="kqzkL6HVJ6pBjtvg17pY-28" value="&lt;p style=&quot;line-height: 70%;&quot;&gt;&lt;font style=&quot;font-size: 10px;&quot;&gt;нарушитель&lt;/font&gt;&lt;/p&gt;" style="text;html=1;strokeColor=none;fillColor=default;align=center;verticalAlign=middle;whiteSpace=wrap;rounded=0;" vertex="1" parent="1">
          <mxGeometry x="232" y="415.25" width="56.5" height="10" as="geometry" />
        </mxCell>
        <mxCell id="kqzkL6HVJ6pBjtvg17pY-29" value="" style="endArrow=blockThin;html=1;rounded=0;endFill=0;strokeWidth=0.5;" edge="1" parent="1">
          <mxGeometry width="50" height="50" relative="1" as="geometry">
            <mxPoint x="378" y="412" as="sourcePoint" />
            <mxPoint x="298" y="421" as="targetPoint" />
          </mxGeometry>
        </mxCell>
        <mxCell id="kqzkL6HVJ6pBjtvg17pY-30" value="&lt;font style=&quot;font-size: 8px;&quot;&gt;бинокль&lt;/font&gt;" style="edgeLabel;html=1;align=center;verticalAlign=middle;resizable=0;points=[];" vertex="1" connectable="0" parent="kqzkL6HVJ6pBjtvg17pY-29">
          <mxGeometry x="0.1423" relative="1" as="geometry">
            <mxPoint x="14" y="-3" as="offset" />
          </mxGeometry>
        </mxCell>
        <mxCell id="kqzkL6HVJ6pBjtvg17pY-31" value="" style="endArrow=blockThin;html=1;rounded=0;endFill=0;strokeWidth=0.5;" edge="1" parent="1">
          <mxGeometry width="50" height="50" relative="1" as="geometry">
            <mxPoint x="378" y="430" as="sourcePoint" />
            <mxPoint x="298" y="421" as="targetPoint" />
          </mxGeometry>
        </mxCell>
        <mxCell id="kqzkL6HVJ6pBjtvg17pY-32" value="&lt;font style=&quot;font-size: 8px;&quot;&gt;лазер&lt;/font&gt;" style="edgeLabel;html=1;align=center;verticalAlign=middle;resizable=0;points=[];" vertex="1" connectable="0" parent="kqzkL6HVJ6pBjtvg17pY-31">
          <mxGeometry x="0.1423" relative="1" as="geometry">
            <mxPoint x="13" y="1" as="offset" />
          </mxGeometry>
        </mxCell>
        <mxCell id="kqzkL6HVJ6pBjtvg17pY-33" value="" style="ellipse;whiteSpace=wrap;html=1;fillColor=#000000;strokeColor=none;" vertex="1" parent="1">
          <mxGeometry x="397.5" y="318.5" width="3" height="3" as="geometry" />
        </mxCell>
        <mxCell id="kqzkL6HVJ6pBjtvg17pY-34" value="&lt;p style=&quot;line-height: 70%;&quot;&gt;&lt;font style=&quot;font-size: 10px;&quot;&gt;нарушитель&lt;/font&gt;&lt;/p&gt;" style="text;html=1;strokeColor=none;fillColor=default;align=center;verticalAlign=middle;whiteSpace=wrap;rounded=0;" vertex="1" parent="1">
          <mxGeometry x="371" y="300" width="56" height="11.5" as="geometry" />
        </mxCell>
        <mxCell id="kqzkL6HVJ6pBjtvg17pY-35" value="" style="endArrow=blockThin;html=1;rounded=0;endFill=0;strokeWidth=0.5;" edge="1" parent="1">
          <mxGeometry width="50" height="50" relative="1" as="geometry">
            <mxPoint x="494" y="320" as="sourcePoint" />
            <mxPoint x="403" y="320" as="targetPoint" />
          </mxGeometry>
        </mxCell>
        <mxCell id="kqzkL6HVJ6pBjtvg17pY-36" value="&lt;font style=&quot;font-size: 8px;&quot;&gt;радиоканал&lt;/font&gt;" style="edgeLabel;html=1;align=center;verticalAlign=middle;resizable=0;points=[];" vertex="1" connectable="0" parent="kqzkL6HVJ6pBjtvg17pY-35">
          <mxGeometry x="0.1423" relative="1" as="geometry">
            <mxPoint x="11" y="-2" as="offset" />
          </mxGeometry>
        </mxCell>
        <mxCell id="kqzkL6HVJ6pBjtvg17pY-37" value="" style="ellipse;whiteSpace=wrap;html=1;fillColor=#000000;strokeColor=none;" vertex="1" parent="1">
          <mxGeometry x="292.25" y="470" width="3" height="3" as="geometry" />
        </mxCell>
        <mxCell id="kqzkL6HVJ6pBjtvg17pY-38" value="&lt;p style=&quot;line-height: 70%;&quot;&gt;&lt;font style=&quot;font-size: 10px;&quot;&gt;стена&lt;/font&gt;&lt;/p&gt;" style="text;html=1;strokeColor=none;fillColor=default;align=center;verticalAlign=middle;whiteSpace=wrap;rounded=0;" vertex="1" parent="1">
          <mxGeometry x="265.75" y="474" width="56.5" height="10" as="geometry" />
        </mxCell>
        <mxCell id="kqzkL6HVJ6pBjtvg17pY-39" value="" style="endArrow=blockThin;html=1;rounded=0;endFill=0;strokeWidth=0.5;" edge="1" parent="1">
          <mxGeometry width="50" height="50" relative="1" as="geometry">
            <mxPoint x="490" y="433" as="sourcePoint" />
            <mxPoint x="298.5" y="471" as="targetPoint" />
          </mxGeometry>
        </mxCell>
        <mxCell id="kqzkL6HVJ6pBjtvg17pY-40" value="&lt;font style=&quot;font-size: 8px;&quot;&gt;акустический&lt;/font&gt;" style="edgeLabel;html=1;align=center;verticalAlign=middle;resizable=0;points=[];" vertex="1" connectable="0" parent="kqzkL6HVJ6pBjtvg17pY-39">
          <mxGeometry x="0.1423" relative="1" as="geometry">
            <mxPoint x="-19" y="3" as="offset" />
          </mxGeometry>
        </mxCell>
        <mxCell id="kqzkL6HVJ6pBjtvg17pY-41" value="" style="endArrow=blockThin;html=1;rounded=0;endFill=0;strokeWidth=0.5;" edge="1" parent="1">
          <mxGeometry width="50" height="50" relative="1" as="geometry">
            <mxPoint x="294" y="466" as="sourcePoint" />
            <mxPoint x="294" y="425" as="targetPoint" />
          </mxGeometry>
        </mxCell>
        <mxCell id="kqzkL6HVJ6pBjtvg17pY-42" value="&lt;font style=&quot;font-size: 8px;&quot;&gt;стетоскоп&lt;/font&gt;" style="edgeLabel;html=1;align=center;verticalAlign=middle;resizable=0;points=[];" vertex="1" connectable="0" parent="kqzkL6HVJ6pBjtvg17pY-41">
          <mxGeometry x="0.1423" relative="1" as="geometry">
            <mxPoint y="5" as="offset" />
          </mxGeometry>
        </mxCell>
      </root>
    </mxGraphModel>
  </diagram>
</mxfile>
